<svg width="288" height="86" viewBox="0 0 288 86" fill="none" xmlns="http://www.w3.org/2000/svg">
<line x1="35.1076" y1="42.8488" x2="35.1076" y2="66.0328" stroke="#CF2458" stroke-width="4.21528" stroke-linecap="round"/>
<line x1="49.8612" y1="30.203" x2="49.8612" y2="66.0329" stroke="#11BCA9" stroke-width="4.21528" stroke-linecap="round"/>
<line x1="64.6146" y1="19.6648" x2="64.6146" y2="66.0329" stroke="#F3BC72" stroke-width="4.21528" stroke-linecap="round"/>
<g opacity="0.4" filter="url(#filter0_f_6_2402)">
<line x1="35.1076" y1="42.8488" x2="35.1076" y2="66.0328" stroke="#CF2458" stroke-width="4.21528" stroke-linecap="round"/>
<line x1="49.8612" y1="30.203" x2="49.8612" y2="66.0329" stroke="#11BCA9" stroke-width="4.21528" stroke-linecap="round"/>
<line x1="64.6146" y1="19.6648" x2="64.6146" y2="66.0329" stroke="#F3BC72" stroke-width="4.21528" stroke-linecap="round"/>
</g>
<path d="M90.4568 51.3488V33.622H93.9024V48.3278H102.941V51.3488H90.4568ZM110.657 51.5985C109.592 51.5985 108.635 51.4237 107.786 51.0742C106.937 50.708 106.213 50.2087 105.614 49.5762C105.031 48.9436 104.582 48.2196 104.266 47.404C103.95 46.5884 103.791 45.7312 103.791 44.8323C103.791 43.9169 103.95 43.0513 104.266 42.2357C104.582 41.4201 105.031 40.6961 105.614 40.0636C106.213 39.4311 106.937 38.94 107.786 38.5905C108.635 38.2243 109.592 38.0412 110.657 38.0412C111.723 38.0412 112.671 38.2243 113.504 38.5905C114.353 38.94 115.077 39.4311 115.676 40.0636C116.275 40.6961 116.725 41.4201 117.024 42.2357C117.34 43.0513 117.499 43.9169 117.499 44.8323C117.499 45.7312 117.34 46.5884 117.024 47.404C116.725 48.2196 116.275 48.9436 115.676 49.5762C115.093 50.2087 114.378 50.708 113.529 51.0742C112.68 51.4237 111.723 51.5985 110.657 51.5985ZM107.237 44.8323C107.237 45.598 107.387 46.2805 107.686 46.8797C107.986 47.4622 108.394 47.92 108.91 48.2529C109.426 48.5858 110.008 48.7522 110.657 48.7522C111.29 48.7522 111.864 48.5858 112.38 48.2529C112.896 47.9033 113.304 47.4373 113.604 46.8547C113.92 46.2555 114.078 45.573 114.078 44.8074C114.078 44.0584 113.92 43.3842 113.604 42.785C113.304 42.1858 112.896 41.7197 112.38 41.3868C111.864 41.0539 111.29 40.8875 110.657 40.8875C110.008 40.8875 109.426 41.0623 108.91 41.4118C108.394 41.7447 107.986 42.2108 107.686 42.81C107.387 43.3926 107.237 44.0667 107.237 44.8323ZM125.799 51.5985C124.734 51.5985 123.776 51.4237 122.928 51.0742C122.079 50.708 121.355 50.2087 120.755 49.5762C120.173 48.9436 119.723 48.2196 119.407 47.404C119.091 46.5884 118.933 45.7312 118.933 44.8323C118.933 43.9169 119.091 43.0513 119.407 42.2357C119.723 41.4201 120.173 40.6961 120.755 40.0636C121.355 39.4311 122.079 38.94 122.928 38.5905C123.776 38.2243 124.734 38.0412 125.799 38.0412C126.864 38.0412 127.813 38.2243 128.645 38.5905C129.494 38.94 130.218 39.4311 130.817 40.0636C131.417 40.6961 131.866 41.4201 132.166 42.2357C132.482 43.0513 132.64 43.9169 132.64 44.8323C132.64 45.7312 132.482 46.5884 132.166 47.404C131.866 48.2196 131.417 48.9436 130.817 49.5762C130.235 50.2087 129.519 50.708 128.67 51.0742C127.821 51.4237 126.864 51.5985 125.799 51.5985ZM122.378 44.8323C122.378 45.598 122.528 46.2805 122.828 46.8797C123.127 47.4622 123.535 47.92 124.051 48.2529C124.567 48.5858 125.15 48.7522 125.799 48.7522C126.431 48.7522 127.006 48.5858 127.522 48.2529C128.038 47.9033 128.445 47.4373 128.745 46.8547C129.061 46.2555 129.219 45.573 129.219 44.8074C129.219 44.0584 129.061 43.3842 128.745 42.785C128.445 42.1858 128.038 41.7197 127.522 41.3868C127.006 41.0539 126.431 40.8875 125.799 40.8875C125.15 40.8875 124.567 41.0623 124.051 41.4118C123.535 41.7447 123.127 42.2108 122.828 42.81C122.528 43.3926 122.378 44.0667 122.378 44.8323ZM143.836 51.3488L140.016 45.7062L138.244 47.4539V51.3488H134.898V33.1226H138.244V44.1582L143.512 38.2909H147.057L142.189 43.8336L147.407 51.3488H143.836ZM163.601 51.3488V39.714L159.057 48.3777H157.135L152.59 39.714V51.3488H149.145V33.622H152.84L158.083 43.7088L163.376 33.622H167.047V51.3488H163.601ZM170.698 53.8955C170.997 53.9621 171.272 54.0204 171.522 54.0703C171.788 54.1202 172.013 54.1452 172.196 54.1452C172.512 54.1452 172.77 54.062 172.97 53.8955C173.186 53.7457 173.394 53.4628 173.594 53.0466C173.794 52.6472 174.002 52.0812 174.218 51.3488L169.05 38.2659H172.52L176.041 47.9283L179.137 38.2659H182.333L176.84 53.9455C176.64 54.528 176.332 55.0524 175.916 55.5184C175.516 56.0011 175.009 56.3756 174.393 56.6419C173.794 56.9249 173.12 57.0664 172.371 57.0664C172.104 57.0664 171.838 57.0414 171.572 56.9915C171.305 56.9582 171.014 56.8916 170.698 56.7917V53.8955ZM196.367 36.643H190.7V51.3488H187.279V36.643H181.611V33.622H196.367V36.643ZM198.243 51.3488V38.2659H201.589V51.3488H198.243ZM198.243 36.4433V33.1226H201.589V36.4433H198.243ZM213.545 51.3488L209.725 45.7062L207.953 47.4539V51.3488H204.607V33.1226H207.953V44.1582L213.221 38.2909H216.766L211.897 43.8336L217.116 51.3488H213.545ZM226.369 50.6747C226.086 50.7912 225.745 50.9244 225.345 51.0742C224.946 51.224 224.513 51.3405 224.047 51.4237C223.598 51.5236 223.14 51.5736 222.674 51.5736C222.058 51.5736 221.492 51.4654 220.976 51.249C220.46 51.0326 220.044 50.6914 219.728 50.2253C219.428 49.7426 219.278 49.1184 219.278 48.3528V40.8376H217.556V38.2659H219.278V34.0214H222.624V38.2659H225.37V40.8376H222.624V47.2292C222.641 47.6786 222.765 48.0032 222.998 48.2029C223.231 48.4027 223.523 48.5026 223.872 48.5026C224.222 48.5026 224.563 48.4443 224.896 48.3278C225.229 48.2113 225.495 48.1114 225.695 48.0282L226.369 50.6747ZM234.007 51.5985C232.942 51.5985 231.985 51.4237 231.136 51.0742C230.287 50.708 229.563 50.2087 228.964 49.5762C228.381 48.9436 227.932 48.2196 227.616 47.404C227.299 46.5884 227.141 45.7312 227.141 44.8323C227.141 43.9169 227.299 43.0513 227.616 42.2357C227.932 41.4201 228.381 40.6961 228.964 40.0636C229.563 39.4311 230.287 38.94 231.136 38.5905C231.985 38.2243 232.942 38.0412 234.007 38.0412C235.073 38.0412 236.021 38.2243 236.854 38.5905C237.703 38.94 238.427 39.4311 239.026 40.0636C239.625 40.6961 240.074 41.4201 240.374 42.2357C240.69 43.0513 240.848 43.9169 240.848 44.8323C240.848 45.7312 240.69 46.5884 240.374 47.404C240.074 48.2196 239.625 48.9436 239.026 49.5762C238.443 50.2087 237.727 50.708 236.879 51.0742C236.03 51.4237 235.073 51.5985 234.007 51.5985ZM230.587 44.8323C230.587 45.598 230.737 46.2805 231.036 46.8797C231.336 47.4622 231.744 47.92 232.26 48.2529C232.776 48.5858 233.358 48.7522 234.007 48.7522C234.64 48.7522 235.214 48.5858 235.73 48.2529C236.246 47.9033 236.654 47.4373 236.953 46.8547C237.27 46.2555 237.428 45.573 237.428 44.8074C237.428 44.0584 237.27 43.3842 236.953 42.785C236.654 42.1858 236.246 41.7197 235.73 41.3868C235.214 41.0539 234.64 40.8875 234.007 40.8875C233.358 40.8875 232.776 41.0623 232.26 41.4118C231.744 41.7447 231.336 42.2108 231.036 42.81C230.737 43.3926 230.587 44.0667 230.587 44.8323ZM252.045 51.3488L248.225 45.7062L246.452 47.4539V51.3488H243.107V33.1226H246.452V44.1582L251.72 38.2909H255.266L250.397 43.8336L255.615 51.3488H252.045Z" fill="white"/>
<defs>
<filter id="filter0_f_6_2402" x="16" y="0.557159" width="67.7223" height="84.5834" filterUnits="userSpaceOnUse" color-interpolation-filters="sRGB">
<feFlood flood-opacity="0" result="BackgroundImageFix"/>
<feBlend mode="normal" in="SourceGraphic" in2="BackgroundImageFix" result="shape"/>
<feGaussianBlur stdDeviation="8.5" result="effect1_foregroundBlur_6_2402"/>
</filter>
</defs>
</svg>
